HIERARCHY
ROOT Hips
{
  OFFSET 2.06909 98.7677 4.72708
  CHANNELS 6 Xposition Yposition Zposition Zrotation Xrotation Yrotation
  JOINT Spine
  {
    OFFSET 0 10.1816 0.1315
    CHANNELS 6 Xposition Yposition Zposition Zrotation Xrotation Yrotation
    JOINT Spine1
    {
      OFFSET 0 10.0835 -1.0008
      CHANNELS 6 Xposition Yposition Zposition Zrotation Xrotation Yrotation
      JOINT Spine2
      {
        OFFSET 0 9.1 -1.3734
        CHANNELS 6 Xposition Yposition Zposition Zrotation Xrotation Yrotation
        JOINT Neck
        {
          OFFSET 0 16.6717 -2.5162
          CHANNELS 6 Xposition Yposition Zposition Zrotation Xrotation Yrotation
          JOINT Head
          {
            OFFSET 0 9.6179 1.685
            CHANNELS 6 Xposition Yposition Zposition Zrotation Xrotation Yrotation
            JOINT HeadTop_End
            {
              OFFSET 0 17.8152 2.585
              CHANNELS 6 Xposition Yposition Zposition Zrotation Xrotation Yrotation
              End Site
              {
                OFFSET 0 0 0
              }
            }
            JOINT LeftEye
            {
              OFFSET 3.0676 6.4095 9.2836
              CHANNELS 6 Xposition Yposition Zposition Zrotation Xrotation Yrotation
              End Site
              {
                OFFSET 0 0 0
              }
            }
            JOINT RightEye
            {
              OFFSET -3.0676 6.4095 9.2835
              CHANNELS 6 Xposition Yposition Zposition Zrotation Xrotation Yrotation
              End Site
              {
                OFFSET 0 0 0
              }
            }
          }
        }
        JOINT LeftShoulder
        {
          OFFSET 4.5704 10.946 -2.628
          CHANNELS 6 Xposition Yposition Zposition Zrotation Xrotation Yrotation
          JOINT LeftArm
          {
            OFFSET 10.5924 -0.5246 -2.2321
            CHANNELS 6 Xposition Yposition Zposition Zrotation Xrotation Yrotation
            JOINT LeftForeArm
            {
              OFFSET 27.8415 -0.0001 0
              CHANNELS 6 Xposition Yposition Zposition Zrotation Xrotation Yrotation
              JOINT LeftHand
              {
                OFFSET 28.3288 0 0
                CHANNELS 6 Xposition Yposition Zposition Zrotation Xrotation Yrotation
                JOINT LeftHandThumb1
                {
                  OFFSET 2.4661 -1.575 2.6824
                  CHANNELS 6 Xposition Yposition Zposition Zrotation Xrotation Yrotation
                  JOINT LeftHandThumb2
                  {
                    OFFSET 3.2298 -1.8647 1.8647
                    CHANNELS 6 Xposition Yposition Zposition Zrotation Xrotation Yrotation
                    JOINT LeftHandThumb3
                    {
                      OFFSET 2.6526 -1.5315 1.5315
                      CHANNELS 6 Xposition Yposition Zposition Zrotation Xrotation Yrotation
                      End Site
                      {
                        OFFSET 1.9546 -1.1285 1.1285
                      }
                    }
                  }
                }
                JOINT LeftHandIndex1
                {
                  OFFSET 9.1093 -0.5171 2.2601
                  CHANNELS 6 Xposition Yposition Zposition Zrotation Xrotation Yrotation
                  JOINT LeftHandIndex2
                  {
                    OFFSET 3.6764 0 0
                    CHANNELS 6 Xposition Yposition Zposition Zrotation Xrotation Yrotation
                    JOINT LeftHandIndex3
                    {
                      OFFSET 2.8831 0 0
                      CHANNELS 6 Xposition Yposition Zposition Zrotation Xrotation Yrotation
                      End Site
                      {
                        OFFSET 2.3927 0 0
                      }
                    }
                  }
                }
                JOINT LeftHandMiddle1
                {
                  OFFSET 9.5334 0 0
                  CHANNELS 6 Xposition Yposition Zposition Zrotation Xrotation Yrotation
                  JOINT LeftHandMiddle2
                  {
                    OFFSET 3.6982 0 0
                    CHANNELS 6 Xposition Yposition Zposition Zrotation Xrotation Yrotation
                    JOINT LeftHandMiddle3
                    {
                      OFFSET 2.9509 0 0
                      CHANNELS 6 Xposition Yposition Zposition Zrotation Xrotation Yrotation
                      End Site
                      {
                        OFFSET 2.8339 0 0
                      }
                    }
                  }
                }
                JOINT LeftHandRing1
                {
                  OFFSET 9.1045 -0.0439 -1.8651
                  CHANNELS 6 Xposition Yposition Zposition Zrotation Xrotation Yrotation
                  JOINT LeftHandRing2
                  {
                    OFFSET 3.154 0 0
                    CHANNELS 6 Xposition Yposition Zposition Zrotation Xrotation Yrotation
                    JOINT LeftHandRing3
                    {
                      OFFSET 2.9377 0 0
                      CHANNELS 6 Xposition Yposition Zposition Zrotation Xrotation Yrotation
                      End Site
                      {
                        OFFSET 2.6475 0 0
                      }
                    }
                  }
                }
                JOINT LeftHandPinky1
                {
                  OFFSET 8.0778 -0.4887 -3.8061
                  CHANNELS 6 Xposition Yposition Zposition Zrotation Xrotation Yrotation
                  JOINT LeftHandPinky2
                  {
                    OFFSET 3.6 0 0
                    CHANNELS 6 Xposition Yposition Zposition Zrotation Xrotation Yrotation
                    JOINT LeftHandPinky3
                    {
                      OFFSET 2.1142 0 0
                      CHANNELS 6 Xposition Yposition Zposition Zrotation Xrotation Yrotation
                      End Site
                      {
                        OFFSET 1.9757 0 0
                      }
                    }
                  }
                }
              }
            }
          }
        }
        JOINT RightShoulder
        {
          OFFSET -4.57 10.9462 -2.628
          CHANNELS 6 Xposition Yposition Zposition Zrotation Xrotation Yrotation
          JOINT RightArm
          {
            OFFSET -10.5928 -0.5248 -2.2321
            CHANNELS 6 Xposition Yposition Zposition Zrotation Xrotation Yrotation
            JOINT RightForeArm
            {
              OFFSET -27.8415 0 0
              CHANNELS 6 Xposition Yposition Zposition Zrotation Xrotation Yrotation
              JOINT RightHand
              {
                OFFSET -28.3288 0 0.0001
                CHANNELS 6 Xposition Yposition Zposition Zrotation Xrotation Yrotation
                JOINT RightHandPinky1
                {
                  OFFSET -8.0767 -0.4885 -3.806
                  CHANNELS 6 Xposition Yposition Zposition Zrotation Xrotation Yrotation
                  JOINT RightHandPinky2
                  {
                    OFFSET -3.6 0 0.0001
                    CHANNELS 6 Xposition Yposition Zposition Zrotation Xrotation Yrotation
                    JOINT RightHandPinky3
                    {
                      OFFSET -2.1142 0 0
                      CHANNELS 6 Xposition Yposition Zposition Zrotation Xrotation Yrotation
                      End Site
                      {
                        OFFSET -1.9757 0 0
                      }
                    }
                  }
                }
                JOINT RightHandRing1
                {
                  OFFSET -9.1036 -0.0439 -1.8651
                  CHANNELS 6 Xposition Yposition Zposition Zrotation Xrotation Yrotation
                  JOINT RightHandRing2
                  {
                    OFFSET -3.154 0 0
                    CHANNELS 6 Xposition Yposition Zposition Zrotation Xrotation Yrotation
                    JOINT RightHandRing3
                    {
                      OFFSET -2.9377 0 0
                      CHANNELS 6 Xposition Yposition Zposition Zrotation Xrotation Yrotation
                      End Site
                      {
                        OFFSET -2.6475 0 0
                      }
                    }
                  }
                }
                JOINT RightHandMiddle1
                {
                  OFFSET -9.5325 0 0
                  CHANNELS 6 Xposition Yposition Zposition Zrotation Xrotation Yrotation
                  JOINT RightHandMiddle2
                  {
                    OFFSET -3.6982 0 0
                    CHANNELS 6 Xposition Yposition Zposition Zrotation Xrotation Yrotation
                    JOINT RightHandMiddle3
                    {
                      OFFSET -2.9509 0 0
                      CHANNELS 6 Xposition Yposition Zposition Zrotation Xrotation Yrotation
                      End Site
                      {
                        OFFSET -2.8339 0 0.0001
                      }
                    }
                  }
                }
                JOINT RightHandIndex1
                {
                  OFFSET -9.1083 -0.5168 2.2601
                  CHANNELS 6 Xposition Yposition Zposition Zrotation Xrotation Yrotation
                  JOINT RightHandIndex2
                  {
                    OFFSET -3.6764 0 0
                    CHANNELS 6 Xposition Yposition Zposition Zrotation Xrotation Yrotation
                    JOINT RightHandIndex3
                    {
                      OFFSET -2.8831 0 0
                      CHANNELS 6 Xposition Yposition Zposition Zrotation Xrotation Yrotation
                      End Site
                      {
                        OFFSET -2.3927 0 0
                      }
                    }
                  }
                }
                JOINT RightHandThumb1
                {
                  OFFSET -2.4648 -1.5727 2.6826
                  CHANNELS 6 Xposition Yposition Zposition Zrotation Xrotation Yrotation
                  JOINT RightHandThumb2
                  {
                    OFFSET -3.2298 -1.8647 1.8647
                    CHANNELS 6 Xposition Yposition Zposition Zrotation Xrotation Yrotation
                    JOINT RightHandThumb3
                    {
                      OFFSET -2.6526 -1.5314 1.5314
                      CHANNELS 6 Xposition Yposition Zposition Zrotation Xrotation Yrotation
                      End Site
                      {
                        OFFSET -1.9546 -1.1285 1.1285
                      }
                    }
                  }
                }
              }
            }
          }
        }
      }
    }
  }
  JOINT LeftUpLeg
  {
    OFFSET 8.2078 -6.7517 -1.5996
    CHANNELS 6 Xposition Yposition Zposition Zrotation Xrotation Yrotation
    JOINT LeftLeg
    {
      OFFSET 0 -44.3705 0.2846
      CHANNELS 6 Xposition Yposition Zposition Zrotation Xrotation Yrotation
      JOINT LeftFoot
      {
        OFFSET 0 -44.4279 -2.9822
        CHANNELS 6 Xposition Yposition Zposition Zrotation Xrotation Yrotation
        JOINT LeftToeBase
        {
          OFFSET 0 -8.7287 10.7106
          CHANNELS 6 Xposition Yposition Zposition Zrotation Xrotation Yrotation
          End Site
          {
            OFFSET 0 -0.0007 9.2781
          }
        }
      }
    }
  }
  JOINT RightUpLeg
  {
    OFFSET -8.2078 -6.7517 -1.5996
    CHANNELS 6 Xposition Yposition Zposition Zrotation Xrotation Yrotation
    JOINT RightLeg
    {
      OFFSET 0 -44.3705 0.2862
      CHANNELS 6 Xposition Yposition Zposition Zrotation Xrotation Yrotation
      JOINT RightFoot
      {
        OFFSET 0 -44.4277 -2.9838
        CHANNELS 6 Xposition Yposition Zposition Zrotation Xrotation Yrotation
        JOINT RightToeBase
        {
          OFFSET 0 -8.7287 10.7106
          CHANNELS 6 Xposition Yposition Zposition Zrotation Xrotation Yrotation
          End Site
          {
            OFFSET 0 -0.0007 9.2781
          }
        }
      }
    }
  }
}
MOTION
Frames:	4
Frame Time:	0.0333333
2.74471 118.107 7.41392 -1.65132 -6.2502 -1.45895 1.94289e-016 10.1816 0.1315 1.71499 -13.1416 -4.15857 0 10.0835 -1.0008 1.61149 5.74175 -0.739831 0 9.1 -1.3734 1.61185 5.75227 -0.695204 -1.77636e-015 16.6717 -2.5162 7.27973 7.83442 -4.99531 0 9.6179 1.685 17.7389 -0.584183 -19.9181 0 17.8152 2.585 -7.95139e-016 -4.77083e-015 -0 3.0676 6.4095 9.2836 -7.95139e-016 -4.77083e-015 -0 -3.0676 6.4095 9.2835 -7.95139e-016 -4.77083e-015 -0 4.5704 10.946 -2.628 -10.3393 0.867763 -0.407521 10.5924 -0.5246 -2.2321 -30.8814 -50.5631 -11.9241 27.8415 -0.0001 0 -0.000164733 7.96762e-006 -84.3783 28.3288 -1.42109e-014 1.42109e-014 42.5445 10.4246 -26.3665 2.4661 -1.575 2.6824 0.780052 -30.297 1.45341 3.2298 -1.8647 1.8647 9.41114 3.4523 13.0929 2.6526 -1.5315 1.5315 6.82116 -1.23977 4.54543 9.1093 -0.5171 2.2601 10.6782 -0.119295 -1.27644 3.6764 0 -7.10543e-015 -1.86133 -0.00364157 0.223744 2.8831 0 -7.10543e-015 -0.930673 -0.000914075 0.111876 9.5334 0 0 8.20076 -0.0569761 2.57581 3.6982 0 -7.10543e-015 -4.92534 -0.0254258 0.591447 2.9509 -7.10543e-015 0 -3.94745 -0.0163366 0.474203 9.1045 -0.0439 -1.8651 5.0655 0.0374358 7.39769 3.154 7.10543e-015 -3.55271e-015 -8.77997 -0.0807375 1.0515 2.9377 3.55271e-015 -5.32907e-015 -7.77348 -0.0632931 0.931723 8.0778 -0.4887 -3.8061 2.76288 0.26001 15.7642 3.6 0 0 -12.1703 0.695491 -2.57231 2.1142 0 -8.88178e-015 -10.7504 -0.120908 1.28497 -4.57 10.9462 -2.628 12 0.353252 -3.45513 -10.5928 -0.5248 -2.2321 19.6409 -34.6853 -17.3235 -27.8415 0 1.42109e-014 -4.40682e-005 5.94309e-006 80.8503 -28.3288 1.42109e-014 0.0001 -38.3641 -31.8603 31.7219 -8.0767 -0.4885 -3.806 10.7868 0.00266771 -12.3864 -3.6 0 0.0001 3.99807 -0.0168158 -0.483378 -2.1142 -3.55271e-015 7.10543e-015 2.6174 -0.00725511 -0.317644 -9.1036 -0.0439 -1.8651 10.8091 -0.067412 -8.7084 -3.154 -3.55271e-015 -1.42109e-014 3.62365 -0.0139032 -0.439596 -2.9377 3.55271e-015 0 2.23682 -0.140832 -0.271647 -9.5325 -3.55271e-015 7.10543e-015 10.839 -0.113111 -4.59894 -3.6982 3.55271e-015 3.55271e-015 3.1365 -0.0104294 -0.380565 -2.9509 -3.55271e-015 -7.10543e-015 1.75525 -0.114475 -0.215168 -9.1083 -0.5168 2.2601 10.865 -0.124707 -1.31119 -3.6764 0 7.10543e-015 2.76142 -0.00807794 -0.335098 -2.8831 -3.55271e-015 3.55271e-015 1.38071 -0.00201316 -0.167603 -2.4648 -1.5727 2.6826 -6.50025 -12.5169 3.30998 -3.2298 -1.8647 1.8647 0.508367 7.38295 -13.9266 -2.6526 -1.5314 1.5314 -2.00427 0.208665 -2.48592 8.2078 -6.7517 -1.5996 7.11445 2.32109 7.27963 3.55271e-015 -44.3705 0.2846 4.40193 33.3934 -9.06277 0 -44.4279 -2.9822 -4.50271 12.4975 -5.08299 3.55271e-015 -8.7287 10.7106 -1.03378e-006 2.21988e-006 3.00201e-007 -8.2078 -6.7517 -1.5996 -9.63511 6.6994 6.46138 -7.10543e-015 -44.3705 0.2862 1.01704 7.08688 7.80074 0 -44.4277 -2.9838 21.2791 21.5857 4.38887 0 -8.7287 10.7106 1.41419e-006 1.13728e-005 4.55191e-006 
2.38483 112.574 6.70891 -0.0795248 -5.91568 -0.884011 0 10.1816 0.1315 0.281613 -12.0899 -4.52259 0 10.0835 -1.0008 0.898899 6.29516 -0.803343 0 9.1 -1.3734 0.898889 6.30318 -0.760054 0 16.6717 -2.5162 6.35264 7.23184 -4.25335 3.55271e-015 9.6179 1.685 14.4597 -3.15295 -16.4428 7.10543e-015 17.8152 2.585 3.97569e-016 1.59028e-015 -0 3.0676 6.4095 9.2836 3.97569e-016 1.59028e-015 -0 -3.0676 6.4095 9.2835 3.97569e-016 1.59028e-015 -0 4.5704 10.946 -2.628 -12 0.982968 -0.59137 10.5924 -0.5246 -2.2321 -41.9517 -43.389 -14.6099 27.8415 -0.0001 -1.42109e-014 -0.000158145 2.32594e-006 -76.1311 28.3288 0 -1.42109e-014 32.6379 14.5045 -16.7831 2.4661 -1.575 2.6824 1.8089 -28.8013 2.8176 3.2298 -1.8647 1.8647 9.08563 3.58735 13.1835 2.6526 -1.5315 1.5315 6.66852 -1.15158 4.5752 9.1093 -0.5171 2.2601 9.1932 -0.0884872 -1.10056 3.6764 3.55271e-015 0 -2.2672 -0.00539372 0.272492 2.8831 -3.55271e-015 -1.77636e-014 -1.13361 -0.00134969 0.136259 9.5334 7.10543e-015 -7.10543e-015 6.1787 -0.0309624 2.19761 3.6982 0 -7.10543e-015 -5.83035 -0.0356249 0.69974 2.9509 3.55271e-015 1.42109e-014 -4.64344 -0.0226132 0.557642 9.1045 -0.0439 -1.8651 2.37285 0.037266 6.32729 3.154 0 1.42109e-014 -10.2962 -0.110937 1.23127 2.9377 1.42109e-014 1.42109e-014 -9.07203 -0.0861679 1.08618 8.0778 -0.4887 -3.8061 -0.524362 0.202503 14.0746 3.6 3.55271e-015 0 -14.1362 0.779299 -2.31041 2.1142 0 -7.10543e-015 -12.5145 -0.163682 1.49276 -4.57 10.9462 -2.628 12 0.343732 -4.3854 -10.5928 -0.5248 -2.2321 31.5901 -22.0315 -15.8215 -27.8415 1.42109e-014 3.55271e-015 -2.17273e-006 -3.42192e-007 70.3786 -28.3288 1.42109e-014 0.0001 -34.9576 -31.5966 24.0407 -8.0767 -0.4885 -3.806 13.285 -0.102545 -10.6949 -3.6 -7.10543e-015 0.0001 6.28101 -0.0415839 -0.759394 -2.1142 -7.10543e-015 -1.42109e-014 4.63579 -0.0227464 -0.562164 -9.1036 -0.0439 -1.8651 12.649 -0.131598 -7.59878 -3.154 7.10543e-015 1.42109e-014 5.39434 -0.0308106 -0.653898 -2.9377 7.10543e-015 0 3.72595 -0.252544 -0.452296 -9.5325 0 0 11.9412 -0.143265 -4.13966 -3.6982 0 0 4.21709 -0.0188453 -0.511485 -2.9509 0 2.84217e-014 2.56298 -0.214831 -0.313232 -9.1083 -0.5168 2.2601 11.3763 -0.13668 -1.37211 -3.6764 0 0 3.29064 -0.0114585 -0.399243 -2.8831 7.10543e-015 -1.42109e-014 1.64532 -0.00288933 -0.199711 -2.4648 -1.5727 2.6826 -7.06946 -11.5542 2.26135 -3.2298 -1.8647 1.8647 0.508367 7.38295 -13.9266 -2.6526 -1.5314 1.5314 -2.00427 0.208665 -2.48592 8.2078 -6.7517 -1.5996 2.20403 6.64455 9.74382 0 -44.3705 0.2846 0.963863 14.1492 -9.89887 0 -44.4279 -2.9822 -9.52244 16.7701 -2.04471 1.77636e-015 -8.7287 10.7106 6.55281e-006 -5.38908 3.49266e-008 -8.2078 -6.7517 -1.5996 -7.05171 5.33101 8.34106 0 -44.3705 0.2862 2.81876 6.80585 8.24295 3.55271e-015 -44.4277 -2.9838 19.1294 18.9554 -0.188262 -1.77636e-015 -8.7287 10.7106 -6.03429e-006 -4.1025 -3.63331e-006 
2.17049 105.546 5.72559 1.05604 -7.26003 -0.597842 0 10.1816 0.1315 -0.458523 -6.55096 -4.64723 8.88178e-016 10.0835 -1.0008 0.142121 5.94273 -0.829937 -8.88178e-016 9.1 -1.3734 0.153353 5.94637 -0.782126 0 16.6717 -2.5162 5.02835 6.26371 -3.44122 -3.55271e-015 9.6179 1.685 10.6611 -6.20369 -13.1863 0 17.8152 2.585 2.18663e-015 1.59028e-015 3.18055e-015 3.0676 6.4095 9.2836 2.18663e-015 1.59028e-015 3.18055e-015 -3.0676 6.4095 9.2835 2.18663e-015 1.59028e-015 3.18055e-015 4.5704 10.946 -2.628 -12 0.982194 -0.412838 10.5924 -0.5246 -2.2321 -52.9325 -36.794 -16.297 27.8415 -0.0001 1.42109e-014 -0.000175607 -7.68762e-006 -64.6315 28.3288 0 -1.42109e-014 20.224 18.0928 -7.89451 2.4661 -1.575 2.6824 2.80311 -27.2025 4.19905 3.2298 -1.8647 1.8647 8.74095 3.72958 13.2809 2.6526 -1.5315 1.5315 6.50695 -1.05845 4.60746 9.1093 -0.5171 2.2601 7.61667 -0.0607886 -0.913036 3.6764 -7.10543e-015 -1.42109e-014 -2.69963 -0.00765127 0.32443 2.8831 1.42109e-014 1.42109e-014 -1.34981 -0.00191383 0.162275 9.5334 0 1.42109e-014 4.05766 -0.0118002 1.82371 3.6982 0 -1.42109e-014 -6.76972 -0.0480381 0.812004 2.9509 1.42109e-014 1.42109e-014 -5.35973 -0.0301206 0.643435 9.1045 -0.0439 -1.8651 -0.42813 0.0257323 5.25137 3.154 0 0 -11.8549 -0.146935 1.41523 2.9377 -2.84217e-014 -2.84217e-014 -10.3992 -0.11316 1.24346 8.0778 -0.4887 -3.8061 -3.92918 0.129667 12.37 3.6 1.42109e-014 -1.42109e-014 -16.1505 0.855811 -2.03936 2.1142 0 -1.42109e-014 -14.3131 -0.21386 1.70318 -4.57 10.9462 -2.628 12 0.317774 -5.76617 -10.5928 -0.5248 -2.2321 41.3151 -8.6228 -11.3327 -27.8415 1.42109e-014 0 1.30622e-005 -1.90772e-007 59.1147 -28.3288 1.42109e-014 0.0001 -32.4062 -29.8598 13.3742 -8.0767 -0.4885 -3.806 15.8783 -0.216333 -8.94489 -3.6 -7.10543e-015 0.0001 8.65131 -0.0789035 -1.04472 -2.1142 -1.42109e-014 0 6.72711 -0.0478782 -0.814808 -9.1036 -0.0439 -1.8651 14.5615 -0.20167 -6.4517 -3.154 7.10543e-015 -1.42109e-014 7.23732 -0.0554225 -0.876286 -2.9377 0 0 5.27183 -0.314517 -0.639497 -9.5325 -7.10543e-015 0 13.0912 -0.176584 -3.66578 -3.6982 -7.10543e-015 0 5.34787 -0.0302914 -0.648269 -2.9509 -7.10543e-015 -1.42109e-014 3.40609 -0.265673 -0.415498 -9.1083 -0.5168 2.2601 11.9156 -0.149897 -1.43624 -3.6764 0 0 3.84883 -0.0156923 -0.466887 -2.8831 0 0 1.92443 -0.00392242 -0.233566 -2.4648 -1.5727 2.6826 -7.63558 -10.5275 1.16884 -3.2298 -1.8647 1.8647 0.508367 7.38295 -13.9266 -2.6526 -1.5314 1.5314 -2.00427 0.208665 -2.48592 8.2078 -6.7517 -1.5996 -0.503381 3.46177 11.3381 0 -44.3705 0.2846 0.954754 18.8533 -9.03764 0 -44.4279 -2.9822 -5.16845 4.60556 -5.94614 0 -8.7287 10.7106 1.42557 -17.9532 0.420487 -8.2078 -6.7517 -1.5996 -3.66047 -2.80357 7.60947 -1.77636e-015 -44.3705 0.2862 2.4344 26.8946 8.08083 -1.77636e-015 -44.4277 -2.9838 9.02046 3.54767 0.788994 -8.88178e-016 -8.7287 10.7106 -3.65364e-006 -17.4324 -4.82404e-006 
2.06909 98.7677 4.72708 1.09523 -9.12538 -1.40027 8.88178e-016 10.1816 0.1315 -0.344666 0.101008 -4.51137 0 10.0835 -1.0008 -0.455957 5.45216 -0.790998 0 9.1 -1.3734 -0.430943 5.4514 -0.746784 0 16.6717 -2.5162 3.71865 4.79364 -2.54204 0 9.6179 1.685 6.65078 -8.31877 -9.48041 7.10543e-015 17.8152 2.585 3.97569e-016 0 -0 3.0676 6.4095 9.2836 3.97569e-016 0 -0 -3.0676 6.4095 9.2835 3.97569e-016 0 -0 4.5704 10.946 -2.628 -12 0.89489 0.106735 10.5924 -0.5246 -2.2321 -60.3089 -30.1589 -17.2885 27.8415 -0.0001 -7.10543e-015 -0.000205974 -1.10909e-005 -49.4523 28.3288 7.10543e-015 0 8.3277 18.1179 -1.87721 2.4661 -1.575 2.6824 3.74605 -25.5134 5.58432 3.2298 -1.8647 1.8647 8.37976 3.8777 13.3845 2.6526 -1.5315 1.5315 6.33772 -0.961195 4.64201 9.1093 -0.5171 2.2601 5.96149 -0.0372621 -0.715434 3.6764 0 1.42109e-014 -3.15491 -0.0104356 0.379096 2.8831 -1.42109e-014 0 -1.57748 -0.0026203 0.189617 9.5334 1.42109e-014 -1.42109e-014 1.87606 -0.000870931 1.47858 3.6982 -1.42109e-014 0 -7.71497 -0.0623633 0.924746 2.9509 -1.42109e-014 1.42109e-014 -6.07 -0.0386164 0.728415 9.1045 -0.0439 -1.8651 -3.26723 0.00213175 4.22673 3.154 -1.42109e-014 0 -13.3989 -0.187531 1.59642 2.9377 0 -1.42109e-014 -11.7005 -0.143159 1.39704 8.0778 -0.4887 -3.8061 -7.35293 0.043069 10.7358 3.6 0 -1.42109e-014 -18.1355 0.921808 -1.76979 2.1142 0 0 -16.0705 -0.269253 1.90715 -4.57 10.9462 -2.628 12 0.30902 -7.48071 -10.5928 -0.5248 -2.2321 48.0569 4.23182 -4.53776 -27.8415 1.42109e-014 0 -4.86487e-006 -1.30793e-005 48.9833 -28.3288 1.42109e-014 0.0001 -27.8389 -28.1762 3.77002 -8.0767 -0.4885 -3.806 18.4399 -0.333036 -7.24331 -3.6 7.10543e-015 0.0001 10.9964 -0.127421 -1.3253 -2.1142 0 0 8.78106 -0.0815314 -1.06187 -9.1036 -0.0439 -1.8651 16.4603 -0.274459 -5.33862 -3.154 0 0 9.07062 -0.0870036 -1.0966 -2.9377 0 0 6.79651 -0.323237 -0.823622 -9.5325 7.10543e-015 1.42109e-014 14.2482 -0.212004 -3.2088 -3.6982 -7.10543e-015 0 6.48896 -0.0445504 -0.78607 -2.9509 0 1.42109e-014 4.24768 -0.264078 -0.517467 -9.1083 -0.5168 2.2601 12.4787 -0.16434 -1.50308 -3.6764 -7.10543e-015 0 4.43171 -0.0208077 -0.537459 -2.8831 0 -1.42109e-014 2.21588 -0.0052036 -0.26893 -2.4648 -1.5727 2.6826 -8.18957 -9.44403 0.0417453 -3.2298 -1.8647 1.8647 0.508367 7.38295 -13.9266 -2.6526 -1.5314 1.5314 -2.00427 0.208665 -2.48592 8.2078 -6.7517 -1.5996 -0.760699 -2.46095 11.8648 0 -44.3705 0.2846 2.57633 35.539 -5.63437 -8.88178e-016 -44.4279 -2.9822 2.35807 -21.0307 -10.7219 0 -8.7287 10.7106 -9.71958e-008 -6.711 -6.22666e-008 -8.2078 -6.7517 -1.5996 -0.720024 -6.73535 4.928 -8.88178e-016 -44.3705 0.2862 -1.69219 41.5238 9.50593 0 -44.4277 -2.9838 -2.06322 -16.4356 0.758609 8.88178e-016 -8.7287 10.7106 6.51953e-007 -12.7666 4.71978e-006 
